<svg width="301" height="301" viewBox="0 0 301 301" fill="none" xmlns="http://www.w3.org/2000/svg">
<g opacity="0.6" clip-path="url(#clip0_57_6)">
<path opacity="0.8" d="M142.157 222.907C182.264 227.396 218.418 198.522 222.907 158.414C227.396 118.306 198.522 82.1532 158.414 77.6638C118.307 73.1744 82.1536 102.049 77.6642 142.156C73.1748 182.264 102.049 218.417 142.157 222.907Z" fill="#42372A"/>
<path fill-rule="evenodd" clip-rule="evenodd" d="M178.467 134.335C179.628 135.79 179.391 137.911 177.936 139.073L143.169 166.84C141.715 168.002 139.594 167.764 138.432 166.309L122.565 146.443C121.403 144.988 121.64 142.867 123.095 141.705C124.55 140.543 126.671 140.781 127.833 142.235L141.596 159.468L173.729 133.805C175.184 132.643 177.305 132.88 178.467 134.335Z" fill="#F1E8D0"/>
<path d="M141.581 228.045C184.527 232.852 223.238 201.935 228.045 158.989C232.852 116.044 201.935 77.3323 158.989 72.5253C116.044 67.7182 77.3326 98.6356 72.5255 141.581C67.7185 184.527 98.6358 223.238 141.581 228.045Z" stroke="#42372A"/>
<path d="M136.388 274.442C204.958 282.117 266.767 232.752 274.442 164.182C282.117 95.6123 232.752 33.8033 164.182 26.128C95.6123 18.4527 33.8033 67.8175 26.128 136.388C18.4527 204.957 67.8176 266.766 136.388 274.442Z" stroke="#42372A"/>
<path d="M135.361 283.615C208.997 291.857 275.372 238.845 283.615 165.209C291.857 91.5731 238.845 25.1974 165.209 16.955C91.5728 8.71265 25.1971 61.7248 16.9548 135.361C8.71238 208.997 61.7245 275.373 135.361 283.615Z" stroke="#42372A" stroke-width="2"/>
<path d="M258.564 166.941L254.377 165.176L255.422 165.157C255.36 165.534 255.191 165.82 254.916 166.016C254.657 166.216 254.338 166.283 253.961 166.22C253.585 166.158 253.297 165.988 253.102 165.713C252.905 165.438 252.835 165.128 252.894 164.782C252.956 164.405 253.125 164.119 253.401 163.922C253.689 163.744 254.013 163.686 254.375 163.746C254.516 163.77 254.641 163.798 254.748 163.832C254.855 163.867 254.984 163.921 255.133 163.994C255.282 164.067 255.46 164.161 255.667 164.277L258.754 165.81L258.564 166.941ZM257.896 170.947L253.709 169.182L254.754 169.163C254.691 169.54 254.522 169.826 254.247 170.023C253.988 170.222 253.67 170.29 253.292 170.227C252.915 170.164 252.628 169.995 252.432 169.719C252.235 169.444 252.166 169.134 252.223 168.789C252.288 168.412 252.457 168.125 252.732 167.929C253.02 167.751 253.345 167.692 253.706 167.752C253.848 167.776 253.97 167.805 254.079 167.839C254.186 167.873 254.313 167.926 254.462 168C254.613 168.073 254.791 168.168 254.997 168.283L258.084 169.816L257.896 170.947Z" fill="#42372A"/>
<path d="M239.706 172.964L255.504 178.451L251.49 190.006L250.068 189.513L253.509 179.605L248.341 177.81L246.546 182.978C245.899 184.844 245.023 186.125 243.921 186.821C242.829 187.538 241.547 187.64 240.071 187.128C238.553 186.6 237.57 185.669 237.122 184.333C236.67 183.013 236.784 181.375 237.463 179.419L239.706 172.964ZM240.464 175.074L238.803 179.859C238.295 181.318 238.193 182.513 238.494 183.444C238.803 184.394 239.5 185.058 240.584 185.435C242.737 186.182 244.324 185.081 245.348 182.132L247.01 177.347L240.464 175.074Z" fill="#42372A"/>
<path d="M239.436 198.6L234.823 206.142L233.54 205.356L238.152 197.815L239.436 198.6ZM232.752 194.737L227.505 203.318L226.2 202.52L232.37 192.431L246.638 201.156L240.655 210.941L239.35 210.142L244.411 201.867L232.752 194.737Z" fill="#42372A"/>
<path d="M225.093 208.065L225.578 209.399C224.613 209.5 223.704 209.774 222.851 210.22C221.998 210.689 221.252 211.254 220.61 211.918C219.978 212.595 219.501 213.303 219.177 214.048C218.843 214.802 218.704 215.533 218.761 216.242C218.831 216.96 219.146 217.582 219.705 218.103C220.415 218.767 221.227 218.993 222.144 218.781C223.051 218.581 223.971 217.979 224.906 216.978L227.353 214.36L228.399 215.339L226.019 217.887C225.214 218.749 224.769 219.587 224.685 220.401C224.601 221.238 224.884 221.962 225.537 222.569C226.003 223.004 226.528 223.235 227.115 223.26C227.704 223.307 228.307 223.173 228.928 222.86C229.549 222.569 230.137 222.137 230.691 221.565C231.259 221.005 231.748 220.329 232.161 219.538C232.574 218.769 232.872 217.924 233.055 217.004L234.512 217.582C234.268 218.705 233.864 219.734 233.298 220.666C232.745 221.608 232.095 222.419 231.353 223.098C230.61 223.777 229.827 224.277 229.003 224.597C228.169 224.931 227.363 225.059 226.582 224.985C225.802 224.91 225.098 224.58 224.47 223.992C223.887 223.448 223.516 222.818 223.357 222.103C223.187 221.398 223.228 220.665 223.485 219.902C223.741 219.159 224.207 218.428 224.88 217.706L225.2 218.135C224.439 218.951 223.652 219.534 222.841 219.889C222.02 220.256 221.218 220.379 220.437 220.258C219.656 220.161 218.951 219.82 218.323 219.232C217.729 218.677 217.341 218.031 217.159 217.295C216.976 216.579 216.973 215.813 217.148 214.995C217.324 214.201 217.641 213.417 218.099 212.647C218.568 211.888 219.159 211.185 219.869 210.541C220.579 209.897 221.373 209.352 222.248 208.904C223.134 208.469 224.083 208.189 225.093 208.065Z" fill="#42372A"/>
<path d="M202.737 226.582L211.009 241.117L205.57 244.213C204.337 244.914 203.164 245.315 202.049 245.418C200.943 245.535 199.942 245.354 199.045 244.875C198.144 244.417 197.393 243.662 196.795 242.609C196.21 241.586 195.949 240.561 196.009 239.538C196.062 238.536 196.416 237.583 197.074 236.678C197.732 235.772 198.676 234.967 199.909 234.268L204.497 231.656L204.226 232.772L201.2 227.457L202.737 226.582ZM204.155 232.648L205.265 233.005L200.718 235.594C199.265 236.42 198.34 237.358 197.948 238.407C197.549 239.476 197.676 240.586 198.331 241.734C198.993 242.898 199.885 243.58 201.009 243.783C202.119 243.996 203.4 243.687 204.854 242.86L209.402 240.272L209.129 241.389L204.155 232.648Z" fill="#42372A"/>
<path d="M185.636 245.698L177.2 248.342L176.75 246.905L185.185 244.263L185.636 245.698ZM183.146 238.392L173.548 241.399L173.091 239.939L184.376 236.403L189.376 252.364L178.432 255.792L177.975 254.334L187.232 251.432L183.146 238.392Z" fill="#42372A"/>
<path d="M166.567 241.659L168.044 258.319L155.86 259.4L155.727 257.9L166.174 256.972L165.691 251.523L160.241 252.006C158.274 252.18 156.746 251.909 155.659 251.19C154.558 250.488 153.938 249.359 153.8 247.805C153.658 246.202 154.104 244.923 155.139 243.968C156.157 243.015 157.698 242.445 159.761 242.262L166.567 241.659ZM164.954 243.217L159.909 243.664C158.37 243.8 157.238 244.197 156.512 244.854C155.772 245.527 155.453 246.435 155.555 247.576C155.756 249.845 157.411 250.843 160.521 250.566L165.566 250.119L164.954 243.217Z" fill="#42372A"/>
<path d="M137.289 242.373L133.335 258.624L131.641 258.211L135.233 243.446L125.413 241.058L121.821 255.823L120.126 255.411L124.079 239.16L137.289 242.373ZM124.031 235.115L122.991 239.387L122.663 238.816L125.774 239.571L125.413 241.058L121.141 240.018L122.429 234.725L124.031 235.115Z" fill="#42372A"/>
<path d="M109.616 243.825L101.706 239.879L102.378 238.532L110.288 242.478L109.616 243.825ZM112.891 236.835L103.891 232.343L104.574 230.975L115.156 236.256L107.687 251.221L97.4261 246.1L98.1088 244.732L106.788 249.063L112.891 236.835Z" fill="#42372A"/>
<path d="M78.6576 232.942L77.3117 231.831L87.9461 218.924L89.2922 220.033L78.6576 232.942ZM97.3687 226.688L98.7333 227.812L88.0989 240.719L86.7343 239.595L97.3687 226.688ZM84.2562 225.883L92.6092 232.765L91.6218 233.964L83.2685 227.081L84.2562 225.883Z" fill="#42372A"/>
<path d="M79.4321 209.965L67.1502 219.701L67.2279 219.03L71.1759 224.01L69.9774 224.961L61.5917 214.382L62.79 213.432L66.7231 218.394L66.0667 218.336L78.3488 208.598L79.4321 209.965Z" fill="#42372A"/>
<path d="M71.4249 199.538L56.485 207.057L53.6715 201.464C53.0343 200.198 52.693 199.006 52.6473 197.887C52.5874 196.776 52.8201 195.785 53.345 194.916C53.8484 194.038 54.6408 193.328 55.7222 192.783C56.7751 192.254 57.8111 192.044 58.8301 192.155C59.8276 192.259 60.7616 192.663 61.6324 193.367C62.5032 194.069 63.2572 195.054 63.8944 196.32L66.2678 201.037L65.1665 200.709L70.6301 197.96L71.4249 199.538ZM65.2946 200.644L64.8806 201.735L62.5287 197.061C61.7769 195.567 60.8876 194.597 59.8607 194.151C58.8126 193.697 57.6978 193.768 56.5169 194.363C55.3218 194.963 54.5938 195.821 54.3331 196.933C54.0654 198.029 54.3072 199.325 55.0588 200.82L57.4108 205.494L56.3095 205.165L65.2946 200.644Z" fill="#42372A"/>
<path d="M63.1514 183.391L45.0762 180.008L44.6552 178.316L59.0401 166.86L59.4899 168.668L45.9522 179.273L45.7791 178.578L62.7074 181.606L63.1514 183.391ZM58.0891 181.548L56.5711 181.384L54.2244 171.947L55.4886 171.091L58.0891 181.548Z" fill="#42372A"/>
<path d="M46.5274 162.635L42.0662 161.908L43.053 161.644C43.0798 162.009 42.9913 162.327 42.7876 162.598C42.5666 162.854 42.2656 162.995 41.8844 163.023C41.5031 163.051 41.1847 162.955 40.9289 162.734C40.6719 162.497 40.5307 162.204 40.5051 161.855C40.4783 161.49 40.5838 161.186 40.8218 160.945C41.0426 160.689 41.3356 160.548 41.701 160.521C41.828 160.512 41.9558 160.511 42.084 160.517C42.2123 160.524 42.3575 160.545 42.5199 160.581C42.6651 160.603 42.852 160.645 43.0801 160.708L46.4434 161.491L46.5274 162.635ZM46.2305 158.584L41.7692 157.857L42.756 157.593C42.7827 157.959 42.6943 158.277 42.4905 158.547C42.2697 158.803 41.9687 158.945 41.5874 158.973C41.2063 159.001 40.8877 158.904 40.6319 158.683C40.3751 158.447 40.2338 158.154 40.208 157.804C40.1814 157.439 40.2869 157.135 40.5247 156.895C40.7455 156.639 41.0387 156.497 41.404 156.471C41.5312 156.461 41.6587 156.46 41.7871 156.467C41.9153 156.473 42.0606 156.494 42.2229 156.53C42.3682 156.552 42.5549 156.594 42.7831 156.657L46.1466 157.441L46.2305 158.584Z" fill="#42372A"/>
<path d="M40.8057 138.222L45.0509 139.84L44.0074 139.896C44.0572 139.517 44.2163 139.224 44.4841 139.019C44.7365 138.811 45.052 138.732 45.4311 138.782C45.8101 138.832 46.1025 138.991 46.3083 139.259C46.5139 139.527 46.5939 139.834 46.5481 140.182C46.4983 140.561 46.3395 140.853 46.0714 141.059C45.7896 141.247 45.4672 141.317 45.104 141.269C44.9619 141.25 44.8364 141.226 44.7281 141.196C44.6197 141.165 44.4894 141.116 44.3378 141.048C44.1862 140.98 44.0049 140.892 43.7943 140.784L40.6561 139.359L40.8057 138.222ZM41.3353 134.195L45.5804 135.813L44.5369 135.869C44.5869 135.49 44.7458 135.197 45.0138 134.992C45.2661 134.784 45.5817 134.705 45.9608 134.755C46.3397 134.805 46.632 134.964 46.8378 135.232C47.0436 135.5 47.1236 135.807 47.0779 136.155C47.0281 136.534 46.869 136.826 46.601 137.032C46.3194 137.22 45.9968 137.29 45.6335 137.242C45.4914 137.223 45.3662 137.199 45.2577 137.169C45.1492 137.138 45.0191 137.089 44.8674 137.021C44.7157 136.953 44.5346 136.865 44.3238 136.757L41.1858 135.332L41.3353 134.195Z" fill="#42372A"/>
<path d="M59.4487 131.491L43.471 126.55L47.0854 114.863L48.5234 115.308L45.4243 125.328L50.6513 126.945L52.2679 121.718C52.8514 119.831 53.6818 118.52 54.7591 117.786C55.8258 117.033 57.1049 116.887 58.5961 117.348C60.133 117.823 61.1477 118.72 61.6399 120.04C62.1369 121.344 62.0795 122.985 61.4677 124.963L59.4487 131.491ZM58.6174 129.408L60.1139 124.569C60.5703 123.093 60.6325 121.895 60.3001 120.976C59.957 120.036 59.2378 119.397 58.1423 119.058C55.9662 118.385 54.4169 119.54 53.4946 122.522L51.998 127.361L58.6174 129.408Z" fill="#42372A"/>
<path d="M58.8278 105.838L63.1845 98.1458L64.4942 98.8875L60.1375 106.58L58.8278 105.838ZM65.6369 109.475L70.5941 100.723L71.9245 101.476L66.0961 111.767L51.5437 103.524L57.1958 93.5454L58.5261 94.2991L53.7455 102.739L65.6369 109.475Z" fill="#42372A"/>
<path d="M72.8303 95.8738L72.3014 94.5547C73.2635 94.4225 74.163 94.1195 75.0004 93.6456C75.8363 93.1493 76.5643 92.5587 77.1843 91.8736C77.7924 91.1783 78.2461 90.4534 78.5456 89.6997C78.8554 88.934 78.9698 88.1982 78.8884 87.4924C78.7953 86.7763 78.461 86.1665 77.8854 85.6634C77.154 85.0238 76.3335 84.8249 75.424 85.0665C74.5251 85.296 73.6249 85.9265 72.7233 86.9577L70.3643 89.6557L69.2852 88.7122L71.5811 86.0862C72.3569 85.1989 72.7738 84.3468 72.832 83.5301C72.8885 82.6911 72.5811 81.978 71.9097 81.3908C71.4299 80.9715 70.8965 80.759 70.3091 80.7532C69.7203 80.725 69.121 80.878 68.5112 81.2123C67.9 81.5243 67.3264 81.9748 66.7902 82.5639C66.242 83.1426 65.7748 83.8342 65.3884 84.6389C65.0007 85.4212 64.7306 86.2746 64.5781 87.1992L63.1035 86.6717C63.3099 85.5403 63.6803 84.4995 64.2147 83.5494C64.7374 82.5888 65.3589 81.7568 66.0793 81.0539C66.7997 80.3507 67.5659 79.8253 68.3779 79.4774C69.2004 79.1174 70.0027 78.962 70.785 79.0111C71.5671 79.0602 72.2819 79.3679 72.9295 79.9341C73.529 80.4582 73.9202 81.0755 74.1034 81.7856C74.2971 82.4837 74.2786 83.2186 74.0482 83.9904C73.8162 84.7397 73.3751 85.4861 72.7251 86.2295L72.3924 85.8116C73.1262 84.9722 73.8925 84.3621 74.6909 83.9812C75.4999 83.5884 76.2969 83.4388 77.0821 83.533C77.8658 83.6046 78.5815 83.9235 79.229 84.4895C79.8405 85.0242 80.2499 85.6572 80.4569 86.3883C80.6624 87.097 80.6912 87.8625 80.5432 88.6854C80.3937 89.4855 80.1025 90.2782 79.6699 91.0635C79.2251 91.8383 78.6582 92.5593 77.9692 93.2264C77.2804 93.8935 76.506 94.4646 75.6461 94.9399C74.7741 95.4047 73.8354 95.7161 72.8303 95.8738Z" fill="#42372A"/>
<path d="M94.5339 76.6004L85.7886 62.3447L91.1243 59.0715C92.3327 58.3302 93.492 57.89 94.6026 57.7506C95.7047 57.5977 96.7115 57.7462 97.6227 58.1963C98.5394 58.6242 99.3141 59.3543 99.9473 60.386C100.564 61.3908 100.859 62.4055 100.834 63.4301C100.813 64.4328 100.49 65.3976 99.8621 66.3243C99.2349 67.2511 98.3171 68.0852 97.1086 68.8265L92.6079 71.5875L92.8427 70.4624L96.041 75.676L94.5339 76.6004ZM92.9176 70.5845L91.7959 70.2637L96.2559 67.5277C97.6814 66.6531 98.5733 65.6855 98.9317 64.6247C99.2953 63.5422 99.1314 62.4373 98.4402 61.3105C97.7406 60.1701 96.8258 59.5166 95.696 59.3502C94.5797 59.1755 93.3087 59.5254 91.8832 60.3999L87.4232 63.1359L87.6581 62.0108L92.9176 70.5845Z" fill="#42372A"/>
<path d="M110.915 56.9268L119.257 54.0029L119.755 55.4234L111.413 58.3471L110.915 56.9268ZM113.648 64.1463L123.14 60.8195L123.646 62.2625L112.485 66.174L106.954 50.391L117.776 46.5979L118.282 48.041L109.128 51.2492L113.648 64.1463Z" fill="#42372A"/>
<path d="M129.961 60.3086L127.913 43.71L140.053 42.212L140.238 43.7059L129.828 44.9904L130.498 50.4205L135.928 49.7504C137.888 49.5086 139.424 49.7284 140.535 50.4096C141.66 51.0733 142.318 52.1796 142.51 53.7289C142.707 55.3255 142.304 56.6188 141.303 57.6092C140.318 58.5973 138.798 59.2181 136.742 59.4717L129.961 60.3086ZM131.519 58.696L136.546 58.0757C138.08 57.8865 139.198 57.4517 139.9 56.7711C140.616 56.073 140.904 55.1548 140.764 54.0165C140.485 51.756 138.796 50.8169 135.698 51.1992L130.671 51.8196L131.519 58.696Z" fill="#42372A"/>
<path d="M159.01 58.4848L162.398 42.1074L164.106 42.4608L161.028 57.3409L170.924 59.3885L174.003 44.5084L175.711 44.8618L172.323 61.2392L159.01 58.4848ZM172.511 65.2796L173.402 60.9746L173.75 61.5345L170.615 60.8858L170.924 59.3885L175.229 60.2791L174.126 65.6136L172.511 65.2796Z" fill="#42372A"/>
<path d="M186.561 55.9422L194.6 59.6199L193.973 60.9886L185.935 57.3111L186.561 55.9422ZM183.524 63.0394L192.671 67.2239L192.035 68.6144L181.28 63.6944L188.238 48.486L198.667 53.2569L198.031 54.6474L189.21 50.612L183.524 63.0394Z" fill="#42372A"/>
<path d="M218.167 65.8369L219.547 66.9005L209.346 80.1529L207.964 79.0888L218.167 65.8369ZM199.672 72.7052L198.271 71.6267L208.473 58.3744L209.875 59.453L199.672 72.7052ZM212.803 73.076L204.228 66.4736L205.175 65.2432L213.751 71.8454L212.803 73.076Z" fill="#42372A"/>
<path d="M218.151 88.7053L230.108 78.5725L230.053 79.2462L225.944 74.3977L227.111 73.4091L235.837 83.7075L234.671 84.696L230.577 79.8658L231.235 79.9031L219.278 90.036L218.151 88.7053Z" fill="#42372A"/>
<path d="M226.764 99.1625L241.449 91.157L244.446 96.6529C245.124 97.8976 245.504 99.0779 245.586 100.194C245.682 101.302 245.483 102.3 244.986 103.187C244.513 104.081 243.744 104.818 242.681 105.397C241.647 105.961 240.617 106.204 239.596 106.127C238.596 106.055 237.648 105.683 236.755 105.009C235.861 104.335 235.075 103.376 234.397 102.131L231.87 97.4952L232.98 97.787L227.611 100.715L226.764 99.1625ZM232.854 97.8556L233.233 96.7518L235.737 101.346C236.538 102.814 237.459 103.754 238.5 104.166C239.563 104.585 240.674 104.478 241.836 103.845C243.009 103.204 243.709 102.324 243.932 101.204C244.165 100.098 243.88 98.8113 243.079 97.3429L240.575 92.7489L241.686 93.0408L232.854 97.8556Z" fill="#42372A"/>
<path d="M235.673 115.23L253.843 118.07L254.313 119.749L240.278 131.631L239.774 129.837L252.988 118.831L253.183 119.521L236.17 117.001L235.673 115.23ZM240.789 116.921L242.311 117.039L244.939 126.401L243.702 127.295L240.789 116.921Z" fill="#42372A"/>
<path d="M252.936 135.495L257.415 136.085L256.437 136.379C256.4 136.015 256.479 135.694 256.674 135.418C256.887 135.155 257.183 135.004 257.563 134.965C257.944 134.925 258.266 135.012 258.527 135.225C258.791 135.454 258.942 135.742 258.977 136.091C259.016 136.455 258.919 136.761 258.689 137.009C258.477 137.272 258.188 137.422 257.823 137.46C257.696 137.473 257.57 137.479 257.441 137.476C257.312 137.473 257.166 137.456 257.003 137.425C256.856 137.408 256.67 137.372 256.44 137.316L253.054 136.636L252.936 135.495ZM253.354 139.535L257.836 140.125L256.858 140.419C256.821 140.055 256.899 139.734 257.095 139.458C257.307 139.195 257.604 139.044 257.983 139.004C258.365 138.965 258.686 139.052 258.947 139.265C259.212 139.493 259.363 139.782 259.398 140.131C259.437 140.495 259.339 140.801 259.11 141.049C258.898 141.312 258.609 141.462 258.244 141.5C258.117 141.513 257.989 141.518 257.861 141.516C257.732 141.513 257.586 141.496 257.423 141.465C257.277 141.448 257.089 141.412 256.86 141.356L253.475 140.675L253.354 139.535Z" fill="#42372A"/>
</g>
<defs>
<clipPath id="clip0_57_6">
<rect width="272.001" height="272.001" fill="white" transform="translate(30.2568) rotate(6.38676)"/>
</clipPath>
</defs>
</svg>
